<svg width="1200" height="600" viewBox="0 0 1200 600" xmlns="http://www.w3.org/2000/svg" role="img" aria-label="Abstract world map">
  <defs>
    <linearGradient id="ocean" x1="0" y1="0" x2="0" y2="1">
      <stop offset="0%" stop-color="#102037" />
      <stop offset="100%" stop-color="#070d18" />
    </linearGradient>
    <linearGradient id="land" x1="0" y1="0" x2="1" y2="1">
      <stop offset="0%" stop-color="#1d2f48" />
      <stop offset="100%" stop-color="#1a2739" />
    </linearGradient>
  </defs>
  <rect width="1200" height="600" fill="url(#ocean)" />
  <g fill="url(#land)" stroke="#2a3b56" stroke-width="2">
    <path d="M64 188l90-56 106 14 38 54-30 68-66 56-96-10-62-68z" />
    <path d="M222 340l72 24 56 62-26 94-76 40-72-18-28-82z" />
    <path d="M360 164l132-38 98 24 44 72-34 52-86 18-64 58-98-26-26-80z" />
    <path d="M616 170l96-36 130 14 78 56-34 70-100 20-64 72-116-24-30-64z" />
    <path d="M868 148l108 10 112 50-20 70-92 28-78 70-94-12-30-78 48-64z" />
    <path d="M810 388l92-24 98 34 32 90-70 62-106-10-80-76z" />
    <path d="M1008 326l94-18 64 40-10 68-72 36-66-40z" />
  </g>
  <g stroke="#1b3048" stroke-width="1" opacity="0.5">
    <path d="M0 100h1200" />
    <path d="M0 200h1200" />
    <path d="M0 300h1200" />
    <path d="M0 400h1200" />
    <path d="M0 500h1200" />
    <path d="M200 0v600" />
    <path d="M400 0v600" />
    <path d="M600 0v600" />
    <path d="M800 0v600" />
    <path d="M1000 0v600" />
  </g>
</svg>
